<?xml version="1.0" encoding="iso-8859-1"?>
<!-- Generator: Adobe Illustrator 19.0.0, SVG Export Plug-In . SVG Version: 6.00 Build 0)  -->
<svg version="1.1" width="200" height="200" id="Layer_1" xmlns="http://www.w3.org/2000/svg" xmlns:xlink="http://www.w3.org/1999/xlink" x="0px" y="0px"
	 viewBox="0 0 512 512" style="enable-background:new 0 0 512 512;" xml:space="preserve">
<path style="fill:#666666;" d="M73.52,208.976c0,0,22.752,97.776-23.104,187.328c0,0,101.152,57.664,205.008,57.664
	s205.008-57.664,205.008-57.664c-45.856-89.552-23.104-187.328-23.104-187.328"/>
<path d="M255.632,58.032L0,178.88L255.216,293.2L512,179.264L255.632,58.032z"/>
<g>
	<ellipse style="fill:#F2B851;" cx="256.48" cy="172.544" rx="32.432" ry="19.68"/>
	<polygon style="fill:#F2B851;" points="385.632,342.88 369.632,342.88 369.632,245.632 274.928,189.2 283.12,175.456 
		385.632,236.528 	"/>
	<polygon style="fill:#F2B851;" points="353.344,378.096 377.632,315.696 401.936,378.096 	"/>
</g>
<g>
</g>
<g>
</g>
<g>
</g>
<g>
</g>
<g>
</g>
<g>
</g>
<g>
</g>
<g>
</g>
<g>
</g>
<g>
</g>
<g>
</g>
<g>
</g>
<g>
</g>
<g>
</g>
<g>
</g>
</svg>
