<?xml version="1.0" encoding="iso-8859-1"?>
<!-- Generator: Adobe Illustrator 16.0.0, SVG Export Plug-In . SVG Version: 6.00 Build 0)  -->
<!DOCTYPE svg PUBLIC "-//W3C//DTD SVG 1.1//EN" "http://www.w3.org/Graphics/SVG/1.1/DTD/svg11.dtd">
<svg version="1.1" id="Capa_1" xmlns="http://www.w3.org/2000/svg" xmlns:xlink="http://www.w3.org/1999/xlink" x="0px" y="0px"
	 width="150px" height="150px" viewBox="0 0 32.75 32.75" style="enable-background:new 0 0 32.75 32.75;" xml:space="preserve"
	>
<g>
	<path d="M27.127,19.722v-4.133l5.623-3.155L16.429,4.332L0,12.664l6.171,3.35v4.192l9.858,5.319l6.856-3.584v4.166h-0.833v2.312
		h3.601v-2.312H24.82v-5.178L27.127,19.722z M16.435,5.774l13.555,6.728l-5.814,3.264l-5.918-2.935
		c-0.138-0.912-0.917-1.613-1.866-1.613c-1.046,0-1.894,0.848-1.894,1.894c0,1.046,0.848,1.895,1.894,1.895
		c0.425,0,0.813-0.146,1.129-0.382l4.609,2.286l-5.704,3.201l-13.653-7.41L16.435,5.774z"/>
</g>
<g>
</g>
<g>
</g>
<g>
</g>
<g>
</g>
<g>
</g>
<g>
</g>
<g>
</g>
<g>
</g>
<g>
</g>
<g>
</g>
<g>
</g>
<g>
</g>
<g>
</g>
<g>
</g>
<g>
</g>
</svg>
