<?xml version="1.0" encoding="UTF-8" standalone="no" ?>
<!DOCTYPE svg PUBLIC "-//W3C//DTD SVG 1.1//EN" "http://www.w3.org/Graphics/SVG/1.1/DTD/svg11.dtd">
<svg xmlns="http://www.w3.org/2000/svg" xmlns:xlink="http://www.w3.org/1999/xlink" version="1.1" width="200" height="200" viewBox="0 0 800 800" xml:space="preserve">
<desc>Created with Fabric.js 3.6.3</desc>
<defs>
</defs>
<g transform="matrix(0.81 0 0 0.81 400 400)"  >
<g style=""   >
		<g transform="matrix(1 0 0 1 -2.4 132.2)" id="Layer_1"  >
<path style="stroke: rgb(0,0,0); stroke-width: 0.1; stroke-dasharray: none; stroke-linecap: butt; stroke-dashoffset: 0; stroke-linejoin: miter; stroke-miterlimit: 4; fill: rgb(66,44,191); fill-rule: nonzero; opacity: 1;"  transform=" translate(-497.6, -632.2)" d="M 765.2 636.4 c 0 87.5 -119.8 158.5 -267.6 158.5 c -147.8 0 -267.6 -70.9 -267.6 -158.5 V 469.5 h 535.2 V 636.4 z" stroke-linecap="round" />
</g>
		<g transform="matrix(1 0 0 1 -4.69 105.6)" id="Layer_1"  >
<path style="stroke: rgb(0,0,0); stroke-width: 0.1; stroke-dasharray: none; stroke-linecap: butt; stroke-dashoffset: 0; stroke-linejoin: miter; stroke-miterlimit: 4; fill: rgb(37,22,107); fill-rule: nonzero; opacity: 1;"  transform=" translate(-495.31, -605.6)" d="M 760.4 540.8 c 11 3.1 -273.8 194.6 -273.8 194.6 L 229.9 543 l 349.9 -67.2 C 579.8 475.8 749.4 537.7 760.4 540.8 z" stroke-linecap="round" />
</g>
		<g transform="matrix(1 0 0 1 0 -83.45)" id="Layer_1"  >
<polygon style="stroke: rgb(0,0,0); stroke-width: 0.1; stroke-dasharray: none; stroke-linecap: butt; stroke-dashoffset: 0; stroke-linejoin: miter; stroke-miterlimit: 4; fill: rgb(255,255,255); fill-rule: nonzero; opacity: 1;"  points="475.7,-0.05 -0.1,274.65 -475.7,-0.05 -475.7,-21.75 0,-274.65 " />
</g>
		<g transform="matrix(1 0 0 1 0 -105.15)" id="Layer_1"  >
<polygon style="stroke: rgb(0,0,0); stroke-width: 0.1; stroke-dasharray: none; stroke-linecap: butt; stroke-dashoffset: 0; stroke-linejoin: miter; stroke-miterlimit: 4; fill: rgb(75,73,242); fill-rule: nonzero; opacity: 1;"  points="475.7,-0.05 -0.1,274.65 -475.7,-0.05 0,-274.65 " />
</g>
		<g transform="matrix(1 0 0 1 237.8 43)" id="Layer_1"  >
<polygon style="stroke: rgb(0,0,0); stroke-width: 0.1; stroke-dasharray: none; stroke-linecap: butt; stroke-dashoffset: 0; stroke-linejoin: miter; stroke-miterlimit: 4; fill: rgb(21,42,133); fill-rule: nonzero; opacity: 1;"  points="237.9,-126.5 -237.9,148.2 -237.9,126.5 237.9,-148.2 " />
</g>
		<g transform="matrix(1 0 0 1 -125.11 77.31)" id="Layer_1"  >
<path style="stroke: rgb(0,0,0); stroke-width: 0.1; stroke-dasharray: none; stroke-linecap: butt; stroke-dashoffset: 0; stroke-linejoin: miter; stroke-miterlimit: 4; fill: rgb(137,224,254); fill-rule: nonzero; opacity: 1;"  transform=" translate(-374.89, -577.31)" d="M 268.3 487.1 l 229.6 -135.4 c 4.8 -2.8 10.9 -1.2 13.7 3.5 c 2.8 4.7 1.2 10.8 -3.5 13.6 L 289 498.5 c -19.4 11.5 -31.4 32.4 -31.4 55 v 240.8 c 0 5.5 -4.5 10 -10 10 h -0.8 c -5.5 0 -10 -4.5 -10 -10 V 542.2 C 236.8 519.5 248.8 498.6 268.3 487.1 z" stroke-linecap="round" />
</g>
		<g transform="matrix(1 0 0 1 -254.06 292.35)" id="Layer_1"  >
<linearGradient id="SVGID_SVGID_1__1" gradientUnits="userSpaceOnUse" gradientTransform="matrix(1 0 0 1 0 0)"  x1="245.9778" y1="879.8434" x2="245.9778" y2="704.8513">
<stop offset="0%" style="stop-color:rgb(255,79,237);stop-opacity: 1"/>
<stop offset="36.14%" style="stop-color:rgb(238,50,216);stop-opacity: 1"/>
<stop offset="76.16000000000001%" style="stop-color:rgb(223,24,198);stop-opacity: 1"/>
<stop offset="100%" style="stop-color:rgb(217,14,191);stop-opacity: 1"/>
</linearGradient>
<path style="stroke: rgb(0,0,0); stroke-width: 0.1; stroke-dasharray: none; stroke-linecap: butt; stroke-dashoffset: 0; stroke-linejoin: miter; stroke-miterlimit: 4; fill: url(#SVGID_SVGID_1__1); fill-rule: nonzero; opacity: 1;"  transform=" translate(-245.94, -792.35)" d="M 246 704.9 c 10.4 0 19 8 19.7 18.3 l 9.9 135.4 c 0.8 11.5 -8.2 21.2 -19.7 21.2 H 236 c -11.5 0 -20.6 -9.8 -19.7 -21.2 l 9.9 -135.4 C 227 712.9 235.6 704.9 246 704.9 z" stroke-linecap="round" />
</g>
		<g transform="matrix(1 0 0 1 -253.9 170.2)" id="Layer_1"  >
<path style="stroke: rgb(0,0,0); stroke-width: 0.1; stroke-dasharray: none; stroke-linecap: butt; stroke-dashoffset: 0; stroke-linejoin: miter; stroke-miterlimit: 4; fill: rgb(137,224,254); fill-rule: nonzero; opacity: 1;"  transform=" translate(-246.1, -670.2)" d="M 246.1 647.9 c 12.3 0 22.3 10 22.3 22.3 c 0 12.3 -10 22.3 -22.3 22.3 c -12.3 0 -22.3 -10 -22.3 -22.3 C 223.8 657.9 233.8 647.9 246.1 647.9 z" stroke-linecap="round" />
</g>
</g>
</g>
</svg>